<?xml version="1.0" encoding="UTF-8"?>
<svg id="OBJECTS" xmlns="http://www.w3.org/2000/svg" viewBox="0 0 50.55 42.55">
  <defs>
    <style>
      .cls-1 {
        fill: #6733ea;
      }

      .cls-2 {
        fill: #fda101;
      }

      .cls-3 {
        fill: #350036;
      }

      .cls-4 {
        fill: #ffffe6;
      }

      .cls-5 {
        fill: #fd6600;
      }
    </style>
  </defs>
  <g>
    <ellipse class="cls-5" cx="26.3" cy="21.96" rx="12.49" ry="12.21"/>
    <path class="cls-4" d="M7.45,22.03c-1.87-1.83-2.88-3.62-2.91-5.23-.04-2.42,2.14-4.02,6.16-4.52,3.85-.48,8.98.09,14.44,1.61,11.64,3.23,20.83,9.58,20.92,14.45.09,4.87-8.96,6.15-20.6,2.92-5.46-1.52-10.62-3.8-14.53-6.44-1.37-.92-2.54-1.86-3.48-2.78ZM41.53,23.8c-3.22-3.14-9.48-6.48-16.46-8.47-5.03-1.43-9.74-2-13.25-1.58-3.3.39-5.16,1.63-5.12,3.41.05,1.78,2,4.11,5.37,6.4,3.58,2.43,8.33,4.56,13.36,5.99h0c10.05,2.86,18.46,2.02,18.36-1.83-.03-1.18-.86-2.53-2.27-3.92Z"/>
    <path class="cls-2" d="M8.9,15.07c.31,1.65-.82,3.22-2.53,3.52-1.71.3-3.35-.79-3.67-2.43-.31-1.65.82-3.22,2.53-3.52,1.71-.3,3.35.79,3.67,2.43Z"/>
    <path class="cls-1" d="M47.84,28.04c.31,1.64-.82,3.22-2.53,3.52-1.71.3-3.35-.79-3.67-2.43-.31-1.64.82-3.22,2.53-3.52,1.71-.3,3.35.79,3.67,2.43Z"/>
    <path class="cls-5" d="M38.41,19.1c.12.39.21.78.21.78s.2.95.18,1.88c-.03,1.32-5.18,7.29-12.25,6.82-6.01-.4-11.78-5.27-11.69-9.36.03-1.29,1.48-4.31,1.82-4.91.17-.3.37-.56.37-.56.11-.15.33-.42.65-.72,0,0,.36-.33.8-.62,4.16-2.67,8.05-2.56,8.05-2.56,7.8.34,11.6,8.41,11.86,9.24Z"/>
  </g>
  <g>
    <path class="cls-3" d="M24.32,17.32c.55.04.95.52.91,1.07s-.52.95-1.07.91-.95-.52-.91-1.07.52-.95,1.07-.91Z"/>
    <path class="cls-3" d="M29.94,18.43c.55.04.95.52.91,1.07s-.52.95-1.07.91c-.55-.04-.95-.52-.91-1.07s.52-.95,1.07-.91Z"/>
    <path class="cls-3" d="M20.36,21.62c.09,2.93,2.57,5.59,5.49,5.88,2.91.29,5.87-1.84,6.53-4.69"/>
  </g>
</svg>